<svg xmlns="http://www.w3.org/2000/svg" xmlns:xlink="http://www.w3.org/1999/xlink" width="450" zoomAndPan="magnify" viewBox="0 0 337.5 337.500003" height="450" preserveAspectRatio="xMidYMid meet" version="1.0"><defs><g/><clipPath id="b1a4612806"><path d="M 0 0 L 337 0 L 337 337 L 0 337 Z M 0 0 " clip-rule="nonzero"/></clipPath><clipPath id="6ab7398a77"><path d="M 273.207031 204.238281 L 293.96875 204.238281 L 293.96875 225.003906 L 273.207031 225.003906 Z M 273.207031 204.238281 " clip-rule="nonzero"/></clipPath><clipPath id="4687816f34"><path d="M 283.589844 204.238281 C 277.855469 204.238281 273.207031 208.886719 273.207031 214.621094 C 273.207031 220.355469 277.855469 225.003906 283.589844 225.003906 C 289.320312 225.003906 293.96875 220.355469 293.96875 214.621094 C 293.96875 208.886719 289.320312 204.238281 283.589844 204.238281 " clip-rule="nonzero"/></clipPath></defs><g clip-path="url(#b1a4612806)"><path fill="#ffffff" d="M 0 0 L 337.5 0 L 337.5 345 L 0 345 Z M 0 0 " fill-opacity="1" fill-rule="nonzero"/><path fill="#ffffff" d="M 0 0 L 337.5 0 L 337.5 337.5 L 0 337.5 Z M 0 0 " fill-opacity="1" fill-rule="nonzero"/><path fill="#ffffff" d="M 0 0 L 337.5 0 L 337.5 337.5 L 0 337.5 Z M 0 0 " fill-opacity="1" fill-rule="nonzero"/></g><g fill="#000000" fill-opacity="1"><g transform="translate(57.53021, 221.516702)"><g><path d="M 89.269531 -30.699219 C 86.441406 -18.984375 78.765625 -6.867188 65.976562 -5.519531 C 61.398438 -4.980469 56.550781 -4.710938 51.703125 -4.710938 C 43.355469 -4.710938 34.871094 -5.519531 26.792969 -7.40625 C 27.601562 -41.605469 27.871094 -75.9375 27.601562 -110.410156 C 27.46875 -121.71875 27.199219 -133.296875 26.660156 -144.878906 C 26.660156 -145.414062 25.71875 -145.683594 24.234375 -145.683594 C 20.871094 -145.683594 14.8125 -144.070312 14.945312 -141.644531 C 16.832031 -99.769531 16.023438 -57.761719 15.214844 -16.023438 C 15.214844 -11.847656 15.082031 -9.019531 15.082031 -4.847656 C 15.082031 -3.769531 15.617188 -3.097656 16.15625 -2.960938 C 27.0625 -0.402344 38.238281 0.941406 49.414062 0.941406 C 64.089844 0.941406 79.980469 0.132812 90.210938 -11.714844 C 95.597656 -17.773438 99.097656 -25.042969 100.984375 -32.71875 C 101.253906 -33.660156 99.90625 -33.929688 98.15625 -33.929688 C 94.925781 -33.929688 89.808594 -32.582031 89.269531 -30.699219 Z M 89.269531 -30.699219 "/></g></g></g><g fill="#000000" fill-opacity="1"><g transform="translate(144.528554, 221.516702)"><g><path d="M 111.890625 -3.90625 C 106.503906 -48.203125 103.945312 -96.40625 109.0625 -140.972656 C 109.332031 -142.859375 107.445312 -143.53125 105.292969 -143.53125 C 101.925781 -143.53125 97.617188 -141.914062 97.347656 -139.492188 C 94.925781 -118.488281 95.195312 -97.75 95.730469 -77.554688 C 87.789062 -78.363281 79.980469 -78.496094 72.167969 -78.496094 C 57.898438 -78.496094 43.894531 -77.824219 29.757812 -76.207031 C 30.027344 -98.558594 29.351562 -120.238281 26.792969 -141.78125 C 26.660156 -142.992188 25.179688 -143.53125 23.429688 -143.53125 C 19.792969 -143.53125 14.675781 -141.511719 15.082031 -138.683594 C 19.65625 -96.40625 21.410156 -42.683594 11.308594 -3.097656 C 7.269531 8.886719 1.480469 27.738281 -19.253906 29.082031 C -29.082031 29.082031 -36.757812 23.5625 -43.894531 17.367188 C -44.566406 16.832031 -45.507812 16.5625 -46.722656 16.5625 C -50.894531 16.5625 -56.953125 19.65625 -54.800781 21.8125 C -45.242188 30.160156 -33.121094 35.546875 -20.332031 35.546875 C -4.039062 35.277344 9.425781 25.71875 16.695312 11.445312 C 28.949219 -12.925781 29.351562 -45.777344 29.757812 -71.226562 C 42.277344 -72.707031 54.800781 -72.976562 67.320312 -72.976562 C 76.476562 -72.976562 85.632812 -72.707031 94.925781 -71.496094 C 95.058594 -71.496094 95.328125 -71.496094 95.730469 -71.363281 C 96.136719 -46.855469 97.214844 -23.5625 100.175781 -0.671875 C 100.308594 0.671875 101.789062 1.210938 103.542969 1.210938 C 107.175781 1.210938 112.292969 -0.941406 111.890625 -3.90625 Z M 111.890625 -3.90625 "/></g></g></g><g clip-path="url(#6ab7398a77)"><g clip-path="url(#4687816f34)"><path fill="#000000" d="M 273.207031 204.238281 L 293.96875 204.238281 L 293.96875 225.003906 L 273.207031 225.003906 Z M 273.207031 204.238281 " fill-opacity="1" fill-rule="nonzero"/></g></g></svg>